<svg viewBox="0 0 860 430" width="860" height="430" xmlns="http://www.w3.org/2000/svg" font-family="'Cascadia Code','Fira Code','JetBrains Mono','SF Mono',Consolas,'Liberation Mono',Menlo,monospace" font-size="15">
  <style>
    @keyframes growx { from { transform: scaleX(0); } to { transform: scaleX(1); } }
    .bar { transform-box: fill-box; transform-origin: left center; animation: growx 1.1s cubic-bezier(.2,.8,.2,1) both; }
    @keyframes growy { from { transform: scaleY(0); } to { transform: scaleY(1); } }
    .sp { transform-box: fill-box; transform-origin: center bottom; animation: growy 0.5s ease-out both; }
    @keyframes pulse { 0%,100% { opacity: 1; } 50% { opacity: 0.25; } }
    .pulse { animation: pulse 1.6s ease-in-out infinite; }
    .blink { animation: pulse 1.1s step-end infinite; }
    text { white-space: pre; }
  </style>

  <rect x="1.5" y="1.5" width="857" height="427" rx="12" fill="#1a1b26" stroke="#414868" stroke-width="1.5"/>
  <path d="M 1.5 13.5 A 12 12 0 0 1 13.5 1.5 H 846.5 A 12 12 0 0 1 858.5 13.5 V 40 H 1.5 Z" fill="#16161e"/>
  <line x1="1.5" y1="40" x2="858.5" y2="40" stroke="#414868" stroke-width="1"/>
  <circle cx="24" cy="21" r="6.5" fill="#f7768e"/>
  <circle cx="46" cy="21" r="6.5" fill="#e0af68"/>
  <circle cx="68" cy="21" r="6.5" fill="#9ece6a"/>
  <text x="430" y="26" text-anchor="middle" fill="#565f89" font-size="13">aaditya@harbringe: ~ — btop</text>
  <text x="828" y="26" text-anchor="end" fill="#24283b" font-size="12">2026-07-24 13:49 UTC</text>

  <text x="28" y="76" fill="#565f89">≡ lang cores</text>
  
    <text x="34" y="108" fill="#565f89">C0</text>
    <text x="66" y="108" fill="#7aa2f7" font-weight="bold">Jupyter Not…</text>
    <rect x="178" y="98" width="186" height="10" rx="5" fill="#24283b"/>
    <rect class="bar" style="animation-delay:0.15s" x="178" y="98" width="95" height="10" rx="5" fill="#7aa2f7"/>
    <text x="376" y="108" fill="#c0caf5"> 51%</text>

    <text x="34" y="146" fill="#565f89">C1</text>
    <text x="66" y="146" fill="#9ece6a" font-weight="bold">TypeScript</text>
    <rect x="178" y="136" width="186" height="10" rx="5" fill="#24283b"/>
    <rect class="bar" style="animation-delay:0.33s" x="178" y="136" width="28" height="10" rx="5" fill="#9ece6a"/>
    <text x="376" y="146" fill="#c0caf5"> 15%</text>

    <text x="34" y="184" fill="#565f89">C2</text>
    <text x="66" y="184" fill="#e0af68" font-weight="bold">JavaScript</text>
    <rect x="178" y="174" width="186" height="10" rx="5" fill="#24283b"/>
    <rect class="bar" style="animation-delay:0.51s" x="178" y="174" width="24" height="10" rx="5" fill="#e0af68"/>
    <text x="376" y="184" fill="#c0caf5"> 13%</text>

    <text x="34" y="222" fill="#565f89">C3</text>
    <text x="66" y="222" fill="#f7768e" font-weight="bold">Java</text>
    <rect x="178" y="212" width="186" height="10" rx="5" fill="#24283b"/>
    <rect class="bar" style="animation-delay:0.69s" x="178" y="212" width="20" height="10" rx="5" fill="#f7768e"/>
    <text x="376" y="222" fill="#c0caf5"> 11%</text>

    <text x="34" y="260" fill="#565f89">C4</text>
    <text x="66" y="260" fill="#bb9af7" font-weight="bold">Python</text>
    <rect x="178" y="250" width="186" height="10" rx="5" fill="#24283b"/>
    <rect class="bar" style="animation-delay:0.87s" x="178" y="250" width="15" height="10" rx="5" fill="#bb9af7"/>
    <text x="376" y="260" fill="#c0caf5">  8%</text>

    <text x="34" y="298" fill="#565f89">C5</text>
    <text x="66" y="298" fill="#7dcfff" font-weight="bold">HTML</text>
    <rect x="178" y="288" width="186" height="10" rx="5" fill="#24283b"/>
    <rect class="bar" style="animation-delay:1.05s" x="178" y="288" width="6" height="10" rx="5" fill="#7dcfff"/>
    <text x="376" y="298" fill="#c0caf5">  3%</text>

  <text x="472" y="76" fill="#565f89">≡ system</text>
  <text x="828" y="76" text-anchor="end" fill="#9ece6a" font-size="13"><tspan class="pulse">●</tspan> online</text>
  
    <text x="472" y="108" fill="#bb9af7" font-weight="bold">uptime</text>
    <text x="580" y="108" fill="#c0caf5">4 yrs 158 days on github</text>

    <text x="472" y="140" fill="#bb9af7" font-weight="bold">procs</text>
    <text x="580" y="140" fill="#c0caf5">44 public repos running</text>

    <text x="472" y="172" fill="#bb9af7" font-weight="bold">stars</text>
    <text x="580" y="172" fill="#e0af68">★ 3 collected</text>

    <text x="472" y="204" fill="#bb9af7" font-weight="bold">followers</text>
    <text x="580" y="204" fill="#c0caf5">10 humans subscribed</text>

    <text x="472" y="236" fill="#bb9af7" font-weight="bold">commits</text>
    <text x="580" y="236" fill="#9ece6a">157 contributions this year</text>

    <text x="472" y="268" fill="#bb9af7" font-weight="bold">streak</text>
    <text x="580" y="268" fill="#f7768e">0 days and counting 🔥</text>
    <text x="472" y="300" fill="#bb9af7" font-weight="bold">caffeine</text>
    <rect x="580" y="290" width="130" height="10" rx="5" fill="#24283b"/>
    <rect class="bar" style="animation-delay:1.3s" x="580" y="290" width="122" height="10" rx="5" fill="#bb9af7"/>
    <text x="722" y="300" fill="#bb9af7">94% ☕</text>

  <text x="28" y="344" fill="#565f89">≡ contribution activity <tspan fill="#24283b">·</tspan> last 60 days</text><rect class="sp" style="animation-delay:1.20s" x="28.0" y="397" width="9" height="3" rx="2" fill="#24283b"/><rect class="sp" style="animation-delay:1.22s" x="41.4" y="397" width="9" height="3" rx="2" fill="#24283b"/><rect class="sp" style="animation-delay:1.24s" x="54.8" y="397" width="9" height="3" rx="2" fill="#24283b"/><rect class="sp" style="animation-delay:1.26s" x="68.2" y="397" width="9" height="3" rx="2" fill="#24283b"/><rect class="sp" style="animation-delay:1.28s" x="81.6" y="397" width="9" height="3" rx="2" fill="#24283b"/><rect class="sp" style="animation-delay:1.30s" x="95.0" y="397" width="9" height="3" rx="2" fill="#24283b"/><rect class="sp" style="animation-delay:1.32s" x="108.4" y="397" width="9" height="3" rx="2" fill="#24283b"/><rect class="sp" style="animation-delay:1.34s" x="121.8" y="397" width="9" height="3" rx="2" fill="#24283b"/><rect class="sp" style="animation-delay:1.36s" x="135.2" y="397" width="9" height="3" rx="2" fill="#24283b"/><rect class="sp" style="animation-delay:1.38s" x="148.6" y="397" width="9" height="3" rx="2" fill="#24283b"/><rect class="sp" style="animation-delay:1.40s" x="162.0" y="397" width="9" height="3" rx="2" fill="#24283b"/><rect class="sp" style="animation-delay:1.42s" x="175.4" y="397" width="9" height="3" rx="2" fill="#24283b"/><rect class="sp" style="animation-delay:1.44s" x="188.8" y="397" width="9" height="3" rx="2" fill="#24283b"/><rect class="sp" style="animation-delay:1.46s" x="202.2" y="397" width="9" height="3" rx="2" fill="#24283b"/><rect class="sp" style="animation-delay:1.48s" x="215.6" y="397" width="9" height="3" rx="2" fill="#24283b"/><rect class="sp" style="animation-delay:1.50s" x="229.0" y="397" width="9" height="3" rx="2" fill="#24283b"/><rect class="sp" style="animation-delay:1.52s" x="242.4" y="397" width="9" height="3" rx="2" fill="#24283b"/><rect class="sp" style="animation-delay:1.54s" x="255.8" y="397" width="9" height="3" rx="2" fill="#24283b"/><rect class="sp" style="animation-delay:1.56s" x="269.2" y="397" width="9" height="3" rx="2" fill="#24283b"/><rect class="sp" style="animation-delay:1.58s" x="282.6" y="397" width="9" height="3" rx="2" fill="#24283b"/><rect class="sp" style="animation-delay:1.60s" x="296.0" y="397" width="9" height="3" rx="2" fill="#24283b"/><rect class="sp" style="animation-delay:1.62s" x="309.4" y="397" width="9" height="3" rx="2" fill="#24283b"/><rect class="sp" style="animation-delay:1.64s" x="322.8" y="397" width="9" height="3" rx="2" fill="#24283b"/><rect class="sp" style="animation-delay:1.66s" x="336.2" y="397" width="9" height="3" rx="2" fill="#24283b"/><rect class="sp" style="animation-delay:1.68s" x="349.6" y="397" width="9" height="3" rx="2" fill="#24283b"/><rect class="sp" style="animation-delay:1.70s" x="363.0" y="397" width="9" height="3" rx="2" fill="#24283b"/><rect class="sp" style="animation-delay:1.72s" x="376.4" y="397" width="9" height="3" rx="2" fill="#24283b"/><rect class="sp" style="animation-delay:1.74s" x="389.8" y="397" width="9" height="3" rx="2" fill="#24283b"/><rect class="sp" style="animation-delay:1.76s" x="403.2" y="397" width="9" height="3" rx="2" fill="#24283b"/><rect class="sp" style="animation-delay:1.78s" x="416.6" y="397" width="9" height="3" rx="2" fill="#24283b"/><rect class="sp" style="animation-delay:1.80s" x="430.0" y="397" width="9" height="3" rx="2" fill="#24283b"/><rect class="sp" style="animation-delay:1.82s" x="443.4" y="397" width="9" height="3" rx="2" fill="#24283b"/><rect class="sp" style="animation-delay:1.84s" x="456.8" y="397" width="9" height="3" rx="2" fill="#24283b"/><rect class="sp" style="animation-delay:1.86s" x="470.2" y="397" width="9" height="3" rx="2" fill="#24283b"/><rect class="sp" style="animation-delay:1.88s" x="483.6" y="397" width="9" height="3" rx="2" fill="#24283b"/><rect class="sp" style="animation-delay:1.90s" x="497.0" y="397" width="9" height="3" rx="2" fill="#24283b"/><rect class="sp" style="animation-delay:1.92s" x="510.4" y="387" width="9" height="13" rx="2" fill="#3d59a1"/><rect class="sp" style="animation-delay:1.94s" x="523.8" y="395" width="9" height="5" rx="2" fill="#3d59a1"/><rect class="sp" style="animation-delay:1.96s" x="537.2" y="387" width="9" height="13" rx="2" fill="#3d59a1"/><rect class="sp" style="animation-delay:1.98s" x="550.6" y="397" width="9" height="3" rx="2" fill="#24283b"/><rect class="sp" style="animation-delay:2.00s" x="564.0" y="397" width="9" height="3" rx="2" fill="#24283b"/><rect class="sp" style="animation-delay:2.02s" x="577.4" y="397" width="9" height="3" rx="2" fill="#24283b"/><rect class="sp" style="animation-delay:2.04s" x="590.8" y="397" width="9" height="3" rx="2" fill="#24283b"/><rect class="sp" style="animation-delay:2.06s" x="604.2" y="394" width="9" height="6" rx="2" fill="#3d59a1"/><rect class="sp" style="animation-delay:2.08s" x="617.6" y="394" width="9" height="6" rx="2" fill="#3d59a1"/><rect class="sp" style="animation-delay:2.10s" x="631.0" y="356" width="9" height="44" rx="2" fill="#9ece6a"/><rect class="sp" style="animation-delay:2.12s" x="644.4" y="397" width="9" height="3" rx="2" fill="#24283b"/><rect class="sp" style="animation-delay:2.14s" x="657.8" y="397" width="9" height="3" rx="2" fill="#24283b"/><rect class="sp" style="animation-delay:2.16s" x="671.2" y="397" width="9" height="3" rx="2" fill="#24283b"/><rect class="sp" style="animation-delay:2.18s" x="684.6" y="397" width="9" height="3" rx="2" fill="#24283b"/><rect class="sp" style="animation-delay:2.20s" x="698.0" y="397" width="9" height="3" rx="2" fill="#24283b"/><rect class="sp" style="animation-delay:2.22s" x="711.4" y="397" width="9" height="3" rx="2" fill="#24283b"/><rect class="sp" style="animation-delay:2.24s" x="724.8" y="397" width="9" height="3" rx="2" fill="#24283b"/><rect class="sp" style="animation-delay:2.26s" x="738.2" y="395" width="9" height="5" rx="2" fill="#3d59a1"/><rect class="sp" style="animation-delay:2.28s" x="751.6" y="397" width="9" height="3" rx="2" fill="#24283b"/><rect class="sp" style="animation-delay:2.30s" x="765.0" y="397" width="9" height="3" rx="2" fill="#24283b"/><rect class="sp" style="animation-delay:2.32s" x="778.4" y="397" width="9" height="3" rx="2" fill="#24283b"/><rect class="sp" style="animation-delay:2.34s" x="791.8" y="397" width="9" height="3" rx="2" fill="#24283b"/><rect class="sp" style="animation-delay:2.36s" x="805.2" y="397" width="9" height="3" rx="2" fill="#24283b"/><rect class="sp" style="animation-delay:2.38s" x="818.6" y="397" width="9" height="3" rx="2" fill="#24283b"/>

  <pattern id="scan" width="4" height="4" patternUnits="userSpaceOnUse">
    <rect width="4" height="1.5" fill="#000000" opacity="0.09"/>
  </pattern>
  <rect x="1.5" y="1.5" width="857" height="427" rx="12" fill="url(#scan)"/>
</svg>
